PathFileType	4	(X/Y/Z)	path1_04_0-548.trc
DataRate	CameraRate	NumFrames	NumMarkers	Units	OrigDataRate	OrigDataStartFrame	OrigNumFrames
30	30	9	22	m	30	137	548
Frame#	Time	Hip			RHip			RKnee			RAnkle			RBigToe			RSmallToe			RHeel			LHip			LKnee			LAnkle			LBigToe			LSmallToe			LHeel			Neck			Head			Nose			RShoulder			RElbow			RWrist			LShoulder			LElbow			LWrist		
		X1	Y1	Z1	X2	Y2	Z2	X3	Y3	Z3	X4	Y4	Z4	X5	Y5	Z5	X6	Y6	Z6	X7	Y7	Z7	X8	Y8	Z8	X9	Y9	Z9	X10	Y10	Z10	X11	Y11	Z11	X12	Y12	Z12	X13	Y13	Z13	X14	Y14	Z14	X15	Y15	Z15	X16	Y16	Z16	X17	Y17	Z17	X18	Y18	Z18	X19	Y19	Z19	X20	Y20	Z20	X21	Y21	Z21	X22	Y22	Z22
138	4.6	2.700900642234261	0.8372671961738063	0.4515995669024631	2.703516521857052	0.7985208771804513	0.37057978710657186	2.6934108365088534	0.4651420917297242	0.36180336835259747	2.7397425906639343	0.10770594324996524	0.3796521792383539	2.578219577863017	0.02691236934558019	0.35530737432878484	2.6063310634829597	0.020546487663777528	0.29768688770559715	2.798537251770297	0.02956379433562132	0.39599265021450414	2.708529044715441	0.7984186988127706	0.5314956664301083	2.7280358519690875	0.4368202431148636	0.5185354726453685	2.77085022517473	0.09311646206608681	0.5464465840014401	2.5846393159134164	0.016405356159955573	0.5716109329407257	2.629910967477249	0.011653169692563118	0.616435936706297	2.8183508687772982	0.025717033708087717	0.5320403264370916	2.6756404971127763	1.467659806947665	0.4659697160250074	2.6353321404716508	1.699795448306188	0.46933668365193615	2.5393895632763988	1.5989975009818858	0.4456028450296558	2.718146374724278	1.365937737736193	0.29291334757050896	2.7224263155237973	1.0808793621524568	0.2238717312540197	2.686128804018015	0.8508572353697205	0.20754622043380774	2.72753638247023	1.3501488648861943	0.5913252550163653	2.7523481061171076	1.0720505882336513	0.6619598588870538	2.730622389936901	0.8400619537386722	0.6832708983026798
139	4.633333333333334	2.701688198974581	0.837699015025353	0.45175362721898876	2.7049788875343714	0.7996137589262406	0.37109678374789423	2.6937259259427297	0.46569647509338186	0.36210089589415845	2.741859398078804	0.10734896070344958	0.3808388133016586	2.5781209153261737	0.0272478866247099	0.35547068767652135	2.607060645203621	0.020634154509166718	0.29806189406252326	2.798501316322505	0.029576196611245786	0.39568648537434464	2.7086283625071523	0.8001775719434141	0.5324594151945599	2.7274594506714056	0.43737356933747173	0.5187437501382165	2.7700524413422536	0.09290422357506226	0.5455514114552784	2.584467183734677	0.016320372759310996	0.5716974978430351	2.6300168225119993	0.011973380693328284	0.6170857486978144	2.8155738190973314	0.027009164900500413	0.5302169915111781	2.6757024365665676	1.4676010779174937	0.465914110041882	2.6380113667734113	1.7002050741487356	0.4704148966699744	2.539194200273146	1.5987892808736206	0.4461384714546803	2.717827003185228	1.366162065144425	0.2932150211431807	2.7225255862693474	1.0808700261683133	0.2240284284486804	2.6859204756645654	0.8503522592895633	0.20769123840245113	2.7261970117884498	1.3506595115840254	0.591836955721577	2.7522821520947605	1.0720316369404652	0.6620571669700155	2.73060242709616	0.8399349104052223	0.682998497386151
140	4.666666666666667	2.702511829591181	0.8381618645411623	0.4520471698340478	2.706900094825846	0.8009432245572247	0.3719072994637102	2.6941517314493106	0.46615789150699316	0.3623351795272897	2.74344014982895	0.10688103369819196	0.38184449734878845	2.578183482347803	0.027562001555164122	0.3560306603646731	2.607926040305755	0.020665647935666602	0.2984174690102805	2.798647100210626	0.029580299719026985	0.3955589123454021	2.7086469624496883	0.8022767762181238	0.5337808262304966	2.726678970163313	0.43782957613046586	0.518919918070794	2.7680300320789613	0.09339160998621009	0.5436575881757111	2.5845564502489293	0.016095906336188553	0.571590199569943	2.63015279489826	0.012789720037702172	0.6180546750139451	2.8116553005420855	0.028725959781336612	0.5275996038631774	2.6757806380778377	1.4674525956730273	0.4658494184410769	2.641907015377143	1.700668446580176	0.4722357622968661	2.538999986654745	1.5985973216729152	0.4468337717542512	2.7174391957521244	1.366565685654711	0.29369896631836684	2.7226767481333978	1.0808130085719099	0.22415013354135838	2.6858452167509763	0.8498443328219246	0.20763036040220972	2.7242192751286476	1.351308249485296	0.5928041083058795	2.7521008750268203	1.072068882053565	0.6623153548994744	2.7304917651821157	0.839890457719676	0.6829102255555685
141	4.7	2.703310921628428	0.8385610109294144	0.4524728500660423	2.7090945063909806	0.8023798050937611	0.3729002142836124	2.6946408838009233	0.46650620301346374	0.36249232808232384	2.744798273538797	0.10623981647342612	0.3828474796875677	2.5783254280263987	0.027749490639197318	0.35700164658960976	2.6085298304579423	0.02059956222291548	0.29864570120625705	2.7990175400458566	0.02959698885508621	0.39560334047099655	2.7085670812440044	0.804425207881854	0.5352154451083053	2.725709126970047	0.43815168204029037	0.519148549737537	2.764538426994747	0.09485141213549747	0.5405999038736743	2.5850000130300983	0.015608759671421488	0.5711746196610145	2.630659642726959	0.013537443205501029	0.6195611260359458	2.8073277809598807	0.03026057574105093	0.5245276315312811	2.675798775823368	1.467235963914197	0.4657824480621229	2.646058048260957	1.701147362256289	0.47438558478445336	2.538809708991886	1.598454532298954	0.4475926560536746	2.7169636678035824	1.3670917939396738	0.2942387162105502	2.722818989725016	1.0807146636066784	0.2242311664781669	2.6858567244961637	0.8494319320634437	0.20738618911197731	2.7215877763245637	1.3519930259085207	0.5943179582776815	2.7518843356477913	1.072118839460205	0.6626449751121771	2.730259275793953	0.8399292659181288	0.6830387312497419
142	4.733333333333333	2.704005646122012	0.8388023402052335	0.45295470734535714	2.711218215843547	0.8036151267885859	0.37382468886199494	2.6951329086632105	0.46673374023258024	0.36254203607299196	2.746124296647323	0.10552173562891118	0.3839231265024291	2.5784659601121014	0.02775449612997655	0.3582068204175698	2.6084090841139638	0.020383479722660858	0.29860276823122955	2.7995476428664503	0.029647765108451574	0.3958032349195588	2.708385122917973	0.8061367358596225	0.5364130689698446	2.724687665224598	0.4383082377760903	0.5194747499515945	2.75984281478185	0.09729158198902053	0.5366266176214441	2.5857410436792807	0.014842978789711912	0.5704016391080182	2.631503715887794	0.0138837813299175	0.6213403494339482	2.803780106494333	0.03105349495379294	0.5217213703189748	2.675645314200548	1.4669987780963316	0.4657096418070844	2.648927540608407	1.7015864400248975	0.47612392871138387	2.5385802058918725	1.5983914019392476	0.4482725986109146	2.716457581868539	1.3675648233556428	0.29463307344448997	2.7228506313736105	1.0805586276516208	0.22425973677984473	2.685914812022201	0.8491970911354424	0.20703875958630613	2.718410017378248	1.3525076954475213	0.596377474355696	2.7517163305089096	1.0721130854176306	0.6629259378145456	2.7299487460997396	0.8400122250571467	0.6833374916634055
143	4.766666666666667	2.7045287579310435	0.8388064562730639	0.45337068825272264	2.712857019911621	0.8043173189301406	0.3743906111388393	2.695542309414714	0.4668364120903884	0.3624119200234816	2.747369971738977	0.1049495480913183	0.3849444426750629	2.5785628859230805	0.027666167261108546	0.35931485498217164	2.6074483877638714	0.02008516110082877	0.29830438972403495	2.8001225397383727	0.0297758449433107	0.3960204301409209	2.7081511361847426	0.8069657764741032	0.5370889769223267	2.7238490276684586	0.43825903333728056	0.5198451265869941	2.754979436010873	0.10020504849810027	0.5326085918264006	2.586528614240507	0.014005105011778114	0.5694354305006029	2.6324354938731953	0.013943781936276808	0.6229993492285596	2.8020659632051905	0.030860352470305517	0.5197931853212785	2.6752640073113856	1.46677156222789	0.4656195012016382	2.64920818667933	1.70195076388301	0.4766717605496509	2.538261607215009	1.5983941737796938	0.44881756142231416	2.7159967754932874	1.3678181064388872	0.29467474703821106	2.7227169139572656	1.0803227440491012	0.2242061118392579	2.6860048684229914	0.8491660188874267	0.20665640760804566	2.7149175240242833	1.352638344495733	0.5988532143323894	2.7516393228018696	1.0720111246185229	0.6630683268349207	2.7296837179605076	0.8400964274348222	0.6836970418635538
144	4.8	2.704843764948139	0.8385398654041374	0.45359025097398353	2.7136643620992236	0.8043308244749376	0.37438884979024223	2.6957749390605645	0.4667971419268213	0.3620017950993591	2.7479507823920923	0.1048023302113112	0.38544194723169434	2.578565573130451	0.027686862037801224	0.35996252284816505	2.605883384687801	0.019906712873930706	0.297914237410435	2.800600470022412	0.030009564317084497	0.3961390947904888	2.707973151168551	0.8067173144416336	0.5371080350923805	2.7233987698268582	0.4379616673460226	0.5200635621557407	2.751405923004631	0.10268100283513634	0.5297462131026386	2.586982461112188	0.013488644769341546	0.5687198172866837	2.633273452942747	0.014029523260770716	0.624435916509327	2.8023861178212757	0.02990454507438053	0.5189113745439091	2.67469418187087	1.4665697144032235	0.46552037800387935	2.6464320113381548	1.7022443630267943	0.47552813876095046	2.5378416213170922	1.598412994173318	0.44925281868210654	2.7156165217279264	1.3678100112794247	0.2942427446394181	2.722438939840919	1.0799981553284252	0.22403338145170948	2.6861184326199212	0.8493062196489374	0.20627452470839108	2.711501414029195	1.3523024719161567	0.601412610996358	2.7516432205328525	1.0718326807201655	0.6630512520557634	2.7295716500967844	0.8401717159038575	0.6840061917382323
145	4.833333333333333	2.7049025110755567	0.8380637952351444	0.453527931627686	2.7134502210424762	0.8037313231141385	0.37375202051754464	2.6957667306531214	0.46659427226838784	0.3612506564034337	2.7472996501292366	0.10520446054796675	0.38505277812357414	2.578425704620591	0.027909489451045374	0.35996606499784234	2.6040985486409767	0.020002357224953204	0.2975644416499162	2.8008378521451283	0.030357716688290206	0.3961228637001397	2.707911915749286	0.8054862620639702	0.5364541041040612	2.723412244404596	0.4374085117766344	0.5198879078722282	2.750238375416548	0.10386820420470601	0.5289264588610629	2.5868522897084647	0.013561384257608283	0.5686237678224167	2.6338312574680884	0.014269374008714877	0.6255708087362705	2.803853021121025	0.028902803223037468	0.5189843865109077	2.674033282321648	1.4664299232928297	0.4654315096845994	2.6412376620364273	1.7024803460807263	0.47264141875282495	2.5373387213044745	1.5984045130408495	0.4495400387735488	2.715330966606592	1.3676234828166245	0.29340638363717875	2.7220430818516754	1.0796301967676938	0.223754490211091	2.6862168009551346	0.8495636361022033	0.20593275793653767	2.7089308905142016	1.3515959302319138	0.6033282345060489	2.751647224973747	1.0716486436522275	0.6629281198939213	2.7296185525936756	0.8402720004820338	0.6842052321404002
146	4.866666666666666	2.704633748515193	0.8375302244684732	0.45317106995217843	2.7122148331584706	0.8027889327093254	0.37254911482605274	2.695514565209927	0.4662561450194168	0.36019610545028297	2.7456056785861467	0.10595054091239577	0.38400500113340547	2.5781479081491714	0.02819509463874197	0.35943844875475406	2.6025259414924027	0.020372414334280192	0.2972941228156053	2.800785266120655	0.030820691198967735	0.39591251211865164	2.7079168476807793	0.8036070924227595	0.53520585223297	2.7238301084178773	0.43668037948549776	0.5192081578718976	2.7518319131572464	0.10332127829571806	0.5304046008392146	2.5862254626027266	0.014103803858733832	0.5690855222884283	2.6337800031218643	0.014510870702343899	0.6259594145336552	2.8053389658011523	0.02851603730567976	0.5199049605325197	2.673396130545026	1.466393870892785	0.4653583086701375	2.6353603586412535	1.7026522593077107	0.46836951216605405	2.536782184409542	1.598342362626566	0.4496230737855308	2.7151515999024296	1.3673928985028085	0.2924187782714391	2.721524439474872	1.0793363123874542	0.22347339760026905	2.6862474914834498	0.8498980858781929	0.20568119133125806	2.7082721323320236	1.3507374862072115	0.6036072215030686	2.7515336641132797	1.0715314743645796	0.6627807702099046	2.7297537768116094	0.8404364384151034	0.6842976627745342
